<?xml version="1.0" encoding="UTF-8"?><svg id="Layer_2" xmlns="http://www.w3.org/2000/svg" xmlns:xlink="http://www.w3.org/1999/xlink" viewBox="0 0 669.53 232.87"><defs><style>.cls-1{fill:url(#linear-gradient-28);}.cls-1,.cls-2,.cls-3,.cls-4,.cls-5,.cls-6,.cls-7,.cls-8,.cls-9,.cls-10,.cls-11,.cls-12,.cls-13,.cls-14,.cls-15,.cls-16,.cls-17,.cls-18,.cls-19,.cls-20,.cls-21,.cls-22,.cls-23,.cls-24,.cls-25,.cls-26,.cls-27,.cls-28,.cls-29,.cls-30,.cls-31,.cls-32,.cls-33,.cls-34,.cls-35{stroke-miterlimit:1;}.cls-1,.cls-2,.cls-3,.cls-4,.cls-5,.cls-6,.cls-7,.cls-8,.cls-9,.cls-10,.cls-11,.cls-12,.cls-13,.cls-14,.cls-16,.cls-18,.cls-19,.cls-20,.cls-21,.cls-22,.cls-23,.cls-24,.cls-25,.cls-26,.cls-27,.cls-28,.cls-29,.cls-30,.cls-31,.cls-32,.cls-33,.cls-34,.cls-35{stroke:#66c;}.cls-2{fill:url(#linear-gradient-29);}.cls-3{fill:url(#linear-gradient-18);}.cls-4{fill:url(#linear-gradient-11);}.cls-36{letter-spacing:.01em;}.cls-5{fill:url(#linear-gradient-30);}.cls-37{filter:url(#drop-shadow-2);}.cls-38{letter-spacing:0em;}.cls-6{fill:url(#linear-gradient-15);}.cls-7{fill:url(#linear-gradient-22);}.cls-8{fill:url(#linear-gradient-17);}.cls-9{fill:url(#linear-gradient-26);}.cls-10{fill:url(#linear-gradient-21);}.cls-11{fill:url(#linear-gradient-31);}.cls-12{fill:url(#linear-gradient-19);}.cls-13{fill:url(#linear-gradient-8);}.cls-14{fill:url(#linear-gradient-20);}.cls-15{fill:#fff;stroke:#30bcc1;}.cls-16{fill:url(#linear-gradient-24);}.cls-39{filter:url(#drop-shadow-1);}.cls-40{letter-spacing:0em;}.cls-17{fill:#30bcc1;filter:url(#drop-shadow-3);font-family:AcuminConcept-ExtraCond, 'Acumin Variable Concept';font-size:109px;font-variation-settings:'wght' 400, 'wdth' 50, 'slnt' 0;stroke:#fff;}.cls-18{fill:url(#linear-gradient-25);}.cls-19{fill:url(#linear-gradient-2);}.cls-20{fill:url(#linear-gradient-4);}.cls-21{fill:url(#linear-gradient-7);}.cls-22{fill:url(#linear-gradient-27);}.cls-23{fill:url(#linear-gradient-32);}.cls-24{fill:url(#linear-gradient-14);}.cls-25{fill:url(#linear-gradient-5);}.cls-26{fill:url(#linear-gradient-10);}.cls-27{fill:url(#linear-gradient);}.cls-28{fill:url(#linear-gradient-12);}.cls-29{fill:url(#linear-gradient-9);}.cls-41{letter-spacing:0em;}.cls-30{fill:url(#linear-gradient-6);}.cls-31{fill:url(#linear-gradient-23);}.cls-32{fill:url(#linear-gradient-16);}.cls-33{fill:url(#linear-gradient-33);}.cls-34{fill:url(#linear-gradient-3);}.cls-35{fill:url(#linear-gradient-13);}</style><filter id="drop-shadow-1" x="-7.47" y="-7.13" width="221" height="215" filterUnits="userSpaceOnUse"><feOffset dx="5" dy="5"/><feGaussianBlur result="blur" stdDeviation="4"/><feFlood flood-color="#000" flood-opacity=".75"/><feComposite in2="blur" operator="in"/><feComposite in="SourceGraphic"/></filter><linearGradient id="linear-gradient" x1="28.44" y1="28.35" x2="159.25" y2="159.16" gradientUnits="userSpaceOnUse"><stop offset="0" stop-color="#c39"/><stop offset=".52" stop-color="#caeeef"/><stop offset="1" stop-color="#30bcc1"/></linearGradient><linearGradient id="linear-gradient-2" x1="84.99" y1="147.03" x2="106.79" y2="168.83" xlink:href="#linear-gradient"/><linearGradient id="linear-gradient-3" x1="23.94" y1="88.37" x2="66.14" y2="130.56" xlink:href="#linear-gradient"/><linearGradient id="linear-gradient-4" x1="56.87" y1="128.97" x2="72.5" y2="144.59" xlink:href="#linear-gradient"/><linearGradient id="linear-gradient-5" x1="133.8" y1="114.96" x2="176.47" y2="157.63" xlink:href="#linear-gradient"/><linearGradient id="linear-gradient-6" x1="152.09" y1="78.34" x2="195.14" y2="121.39" xlink:href="#linear-gradient"/><linearGradient id="linear-gradient-7" x1="25.43" y1="103.72" x2="54.76" y2="133.05" xlink:href="#linear-gradient"/><linearGradient id="linear-gradient-8" x1="39.18" y1="127" x2="58.45" y2="146.28" xlink:href="#linear-gradient"/><linearGradient id="linear-gradient-9" x1="140.19" y1="97.83" x2="185.5" y2="143.15" xlink:href="#linear-gradient"/><linearGradient id="linear-gradient-10" x1="69.35" y1="146.49" x2="80.19" y2="157.33" xlink:href="#linear-gradient"/><linearGradient id="linear-gradient-11" x1="13.93" y1="86.77" x2="41.88" y2="114.71" xlink:href="#linear-gradient"/><linearGradient id="linear-gradient-12" x1="134.54" y1="143.06" x2="160.75" y2="169.27" xlink:href="#linear-gradient"/><linearGradient id="linear-gradient-13" x1="60.26" y1="76.69" x2="72.24" y2="88.66" xlink:href="#linear-gradient"/><linearGradient id="linear-gradient-14" x1="175.55" y1="77.19" x2="184.33" y2="85.98" xlink:href="#linear-gradient"/><linearGradient id="linear-gradient-15" x1="10.04" y1="72.28" x2="18.73" y2="80.97" xlink:href="#linear-gradient"/><linearGradient id="linear-gradient-16" x1="27.96" y1="32.24" x2="36.35" y2="40.63" xlink:href="#linear-gradient"/><linearGradient id="linear-gradient-17" x1="136.55" y1="79.85" x2="145.13" y2="88.43" xlink:href="#linear-gradient"/><linearGradient id="linear-gradient-18" x1="83.65" y1="81.78" x2="91.1" y2="89.24" xlink:href="#linear-gradient"/><linearGradient id="linear-gradient-19" x1="165.17" y1="33.94" x2="172.27" y2="41.05" xlink:href="#linear-gradient"/><linearGradient id="linear-gradient-20" x1="156.37" y1="82.99" x2="162.92" y2="89.53" xlink:href="#linear-gradient"/><linearGradient id="linear-gradient-21" x1="125.17" y1="127.41" x2="139.34" y2="141.57" xlink:href="#linear-gradient"/><linearGradient id="linear-gradient-22" x1="49.19" y1="153.02" x2="53.83" y2="157.66" xlink:href="#linear-gradient"/><linearGradient id="linear-gradient-23" x1="41.4" y1="163.21" x2="47.32" y2="169.13" xlink:href="#linear-gradient"/><linearGradient id="linear-gradient-24" x1="136" y1="146.89" x2="141.77" y2="152.66" xlink:href="#linear-gradient"/><linearGradient id="linear-gradient-25" x1="116.02" y1="6.73" x2="121.7" y2="12.41" xlink:href="#linear-gradient"/><linearGradient id="linear-gradient-26" x1="89.79" y1="141.33" x2="93.45" y2="144.99" xlink:href="#linear-gradient"/><linearGradient id="linear-gradient-27" x1="133.47" y1="156.39" x2="139.06" y2="161.98" xlink:href="#linear-gradient"/><linearGradient id="linear-gradient-28" x1="96.99" y1="82.56" x2="102.6" y2="88.17" xlink:href="#linear-gradient"/><linearGradient id="linear-gradient-29" x1="79.5" y1="38.56" x2="84.13" y2="43.2" xlink:href="#linear-gradient"/><linearGradient id="linear-gradient-30" x1="143.38" y1="14.25" x2="148.29" y2="19.15" xlink:href="#linear-gradient"/><linearGradient id="linear-gradient-31" x1="133.51" y1="68.57" x2="138.5" y2="73.56" xlink:href="#linear-gradient"/><linearGradient id="linear-gradient-32" x1="14.7" y1="60.26" x2="19.73" y2="65.29" xlink:href="#linear-gradient"/><linearGradient id="linear-gradient-33" x1="20.1" y1="44.17" x2="24.28" y2="48.35" xlink:href="#linear-gradient"/><filter id="drop-shadow-2" x="212.53" y="8.87" width="467" height="133" filterUnits="userSpaceOnUse"><feOffset dx="7" dy="7"/><feGaussianBlur result="blur-2" stdDeviation="5"/><feFlood flood-color="#000" flood-opacity=".75"/><feComposite in2="blur-2" operator="in"/><feComposite in="SourceGraphic"/></filter><filter id="drop-shadow-3" filterUnits="userSpaceOnUse"><feOffset dx="7" dy="7"/><feGaussianBlur result="blur-3" stdDeviation="5"/><feFlood flood-color="#000" flood-opacity=".75"/><feComposite in2="blur-3" operator="in"/><feComposite in="SourceGraphic"/></filter></defs><g id="Layer_1-2"><g class="cls-39"><path class="cls-27" d="M108.4,67.93c9.78,7.3,13.94,15.96,6.64,27.22-6.41,9.89-19.44,15.01-29.17,21-12.18,7.5-23.13,7.96-37.02,8.27-11.41.26-22.28,4.8-27.06,15.83-1.92,4.42-3.02,10.11-1.56,14.81,1.01,3.26,3.26,10.72-2.42,4.15-7.17-8.29-2.82-22.61,3.35-30.1,8.04-9.77,21.07-12.07,33.11-11.63,6.03.22,11.87.62,17.71-1.35,6.9-2.32,13.34-6.86,19.57-10.56,8.43-5.01,25.45-15.61,16.79-27.7-3.7-5.16-10.84-5.99-16.68-5.26-5.27.66-11.03,5.46-16,3.44,1.38-3.21,3.88-3.96,6.74-5.81-3.8-1.29-8.12-.97-12.06-1.82-4.75-1.02-7.69-2.9-11.65-5.39-5.52-3.47-16.37-6.52-22.85-5.4,5.97,3.47,13.43,4.49,19.77,7.23,3.62,1.57,4.98,1.9,1.31,4.83-2.36,1.89-5.7,2.67-8.65,2.85-6.34.39-11.8-2.45-16.36-6.63-4.2-3.85-8.08-6.98-12.57-10.36,4.64-3.37,12.89-4.87,18.42-6.42,5.46-1.53,10.66-1.89,15.64,1.34,4.82,3.13,5.56,8.87,10.66,11.56,4.87,2.58,12.26,3.7,17.76,3.5-5.36-3.97-10.6-7.99-14.59-13.43-2.57-3.51-3.06-8.07-6.97-9.13-4.78-1.3-8.97-.08-12.75-4.22-4.29-4.69-4.44-11.97-5.95-17.77-.53-2.04-2.08-4.2-.37-5.31,1.61-1.04,7.37.98,9.08,1.44,6.2,1.65,11.97,5.16,14.81,11.16,1.25,2.65,3.91,11.71-.74,10.23-1.99-.63-5.61-6.56-7.38-8.26-1.86-1.79-4.44-5.41-7.22-5.39,2.4,4.91,9.41,13.41,13.95,16.67,1.67,1.2,2.76,1.15,4.27,2.79,2.37,2.58,2.91,6.8,6.27,8.49.18-3.69-1.3-7.41-1.19-11.26.1-3.4-.58-10.98,1.16-13.98,1.18-2.03,2.37-.42,3.1-2.84.88-2.89-3.83-9.89-5.93-11.36.64,3.29,6.96,12.26.68,11.69-5.77-.53-6.28-7.34-6.46-11.6-.05-1.1-.94-7.32.06-8.09,1.11-.86,6.14,1.43,7.26,1.92,4.8,2.11,8.09,5.97,8.55,11.31.24,2.73-.27,4.26-1.48,6.63-1.45,2.85-2.13,3.3-2.7,6.91-.91,5.86-1.98,10.79-.02,16.61,1.74,5.16,5.28,10.54,9.89,13.55,3.13,2.04,12.75,5.41,16.49,3.87-5.88-2.65-10.9-6.39-13.46-12.51-2.93-7-.49-14.08-1.86-20.76-1.53-7.47-1.51-13.8,3.43-20.42,3.68-4.92,13.16-11.66,19.59-11.99-.2,5.98.08,12.66-.62,18.65-.63,5.38-3,10.03-7.39,13.27-1.19.88-5.7,3.99-7.15,3.65-2.83-.66-1.41-4.62-.91-6.98.71-3.39,2.02-6.73,3.72-9.74.68-1.2,4.69-5.49,4.24-6.63-6,4.39-9.28,10.25-10.6,17.56-1.14,6.29-2.02,20.08,4.54,24.1.83-5.62,1.06-10.33,5.05-14.86,3.29-3.73,11.88-5.9,13.89-10.11,1.02-2.14-.22-5.33.72-7.77,1-2.58,3.07-4.74,5.29-6.33,2.11-1.51,15.85-7.07,18.33-4.43-.1-.11-5.04,11.44-5.52,12.65-1.57,3.88-3.58,7.69-7.57,9.54-4.34,2.01-9.47,2.31-6.45-3.14,2.38-4.29,6.58-7.1,9.06-11.08-4.19.19-7.58,5.32-9.54,8.59-2.71,4.52-4.75,7.55-9.17,10.56-8.64,5.86-13.49,15.78-4.4,23.81-2.01-12.15,4.19-20.65,16.75-22.02,5.82-.63,9.68,1.83,15.13-.77,5.06-2.41,11.51-5.85,15.6-9.74-5.2-.58-9.92,5.27-14.63,6.53-2.34.62-2.37,2.07-3.02-.6-.35-1.44,1.08-4.17,1.74-5.29,4.83-8.21,17.82-8.54,26.14-7.05-2.13,5.61-5.66,13.29-10.75,16.75-2.22,1.51-4.85,2.5-7.55,2.54-1.78.02-5.25-1.73-6.78-.61-4.71,3.44,11.74,2.22,13.57,2.19,7.05-.1,14.83,4.85,21.64,2.42,2.27-.81,9.2-8.31,7.81-1.64-1.31,6.28-9.76,6.62-14.57,6-6.8-.86-12.92-2.68-19.84-2.57-5.07.09-18.06-2.12-20.95,4.06,2.51.94,5.56.66,8.24,1.52,1.58.51,4.46,2.36,6.19,2.37,4.09.02,7.52-4.88,12.34-5.14,5.44-.3,10.58,2.31,15.53,4.13,6.42,2.37,9.83,1.36,16.26.22-3.31,15.37-26.87,25.59-39.5,15.57-1.47-1.17-6.56-6.56-5.43-8.81,1.21-2.4,7.95.44,9.88.92,7.35,1.82,13.94,2.95,21.67.08-1.15-1.02-6.57-.2-8.14-.31-2.97-.22-5.91-.74-8.8-1.43-3.09-.75-6.11-1.96-9.24-2.55-3.61-.68-6.96-.04-10.59-.47-5.49-.65-12.62-3.34-17.42,1.2-4.24,4.01,2.38,4.97,5.27,7.71,9.53,9.01,6.33,19.42,3.71,30.5-3.34,14.12,7.39,20.47,15.86,29.07,15.63,15.88,10.45,44.14-7.96,55.61-5.3,3.3-11.41,5.02-17.55,5.92-3.15.47-14.96,4.4-13.77-1.88.96-5.07,11.02-2.83,14.76-3.5,6.34-1.14,12.63-3.95,17.49-8.21,9.14-8,13.39-22.18,8.71-33.62-2.71-6.63-7.65-10.22-12.88-14.72-5.14-4.43-6.98-8.88-9.91-14.71-3.99,12.89,9.47,22.87,9.69,35.29.1,5.59-1.56,11.24-4.61,15.92-3.8,5.82-9.27,7.43-14.32,11.61,4.62,0,11.06-1.93,15.17-3.88,3.5-1.67,7.63-6.34,11.5-6.47-1.38,6.94-10.38,12.05-16.65,13.53-7.36,1.74-16.18-.62-22.42,4.6-2.02,1.69-3.17,6.02-5.11,7.2-3.7,2.25-4.88-.93-3.73-4.01,3.26-8.66,12.3-10.79,19.42-15.06,6.9-4.13,12.87-10.06,14.56-18.23,2.11-10.23-4.42-15.68-7.63-24.43-3.19-8.72-1.43-17.89,2.1-26.18,3.22-7.57,8.08-17.64,3.61-25.73,3.33,15.63-6.44,26.14-12.57,39.42-5.43,11.77-1.34,26.31-10.52,36.44-8.47,9.35-22.65,10.83-30.47,21.07-2.01,2.64-4.79,11.99-7.64,12.05-5.07.11-3.63-7.46-2.93-10.2,2.96-11.63,15.11-16.9,25.25-20.89,5.37-2.12,10.08-4.44,13.1-9.64,3.22-5.55,2.49-11.68,3.24-17.8.83-6.8,3.29-12.98,7.16-18.63,3.4-4.96,8.12-8.7,10.47-14.38,4.44-10.77,1.2-21.38-10.1-25.12ZM127.77,43.28c-7.44-.02-21.11,5.78-16.43,15.49,3.12-2.33,5.55-5.5,8.73-7.86,3.39-2.52,7.18-4.49,10.38-7.25-.88-.28-1.77-.4-2.68-.37Z"/><path class="cls-19" d="M121.42,145.18c-.17,15.8-13.53,20.61-24.93,27.66-2.83,1.75-5.54,3.82-7.72,6.35-1.88,2.19-2.69,6.51-4.47,8.29-2.24,2.23-6.26.66-9.48.23-3.67-.49-6.2.32-6.06-3.63.52-14.51,23.16-21.03,32.72-27.54,6.07-4.13,9.09-8.97,9.7-16.33.43-5.29-2.19-16.72,1.39-20.78,1.77,4.41,1.86,9.19,4.08,13.59,1.91,3.79,5.18,7.6,4.77,12.15Z"/><path class="cls-34" d="M71.01,107.68c-19.67.12-47.46-17.41-60.99,5.56-2.68,4.54-5.61,11.36-4.33,16.75.6,2.5,5.69,7.08,3.6,9.19-4.68,4.75-7.02-6.4-7.57-8.6-1.84-7.36-.6-12.35,2.58-19.17,5.03-10.79,13.71-18.47,26.1-18.4,6.69.04,12.33,1.9,18.5,4.15,6.82,2.48,13.76,3.52,20.98,4.04,5.58.4,11.26.33,16.64-1.39,1.82-.58,11.92-7.42,13.2-5.41,2.09,3.29-7.14,8.02-9.14,9.07-6.3,3.31-12.59,3.8-19.55,4.21Z"/><path class="cls-20" d="M106.4,106.43c-4.41,9.33-14.18,14.79-20.21,23.05-5.66,7.76-11.29,13.96-20.85,16.72-9.46,2.73-19.06,2.11-25.37,11.14-2.48,3.55-4.32,8.54-2.99,12.79.69,2.23,5.75,8.27-.97,7.73-9.98-.81-7-18.73-3.72-23.71,5.9-8.96,16.83-10.87,26.53-12.91,10.86-2.28,16.85-7.2,23.28-16,6.66-9.11,14.47-13.65,24.3-18.82Z"/><path class="cls-25" d="M176.77,144.06c-.12,10.34-2.2,17.38-10.99,23.57-4.47,3.15-5.05,1-3.13-3.25,2.04-4.5,3.81-8.83,4.27-13.81.81-8.89-1.72-17.45-8.96-23.03-7.07-5.45-18.52-5.28-23.21-13.54,16.58-7.82,44.57,11.47,42.02,30.06Z"/><path class="cls-30" d="M195.53,79.86c-.25,5.68-1.78,11.33-5.33,15.87-1.93,2.46-8.04,5.59-7.94,7.99.07,1.68,4.77,5.94,5.7,7.72,1.39,2.67,2.25,5.54,2.51,8.54.29,3.31.22,10.01-3.02,5.48-3.03-4.24-3.99-10.15-7.3-14.58-3.94-5.25-8.79-8.15-15.02-10-5.63-1.67-11.66-2.78-17.55-2.2-3.42.34-6.73,1.28-9.95,2.43-1.32.47-6.95,3.93-7.98,3.56-3.61-1.28,3.43-7.35,4.17-7.79,3.89-2.32,8.37-3.64,12.88-3.97,4.67-.34,10.01-.32,14.63.45,5.07.84,10.48,4.41,15.57,4.28,8.93-.24,13.93-10.6,13.83-18.42-.03-2.33-3.08-8.96.78-9.3,3.89-.34,4.03,7.54,4.03,9.93Z"/><path class="cls-21" d="M61.14,114.95c-12.58-.73-29.23-4.01-39.5,5.45-2.27,2.1-3.9,4.69-5.2,7.48-.52,1.12-1.76,6.84-3.11,7.07-5.79.99-3.63-10.9-2.88-13.04,4.2-12.11,16.96-17.16,29.01-16.21,7.04.55,13.76,3.02,20.71,4.06,5.55.83,11.86-.64,17.17.7-2.69,3.29-12.16,4.14-16.19,4.49Z"/><path class="cls-13" d="M22.68,151.13c1.98-11.68,8.37-18.65,20.1-21.14,6.05-1.28,12.26-.64,18.36-1.37,6.27-.75,12.09-4.53,18.18-5.07-1.37,4.68-7.95,9.55-12.16,11.61-6.58,3.22-14.03,2.68-21.02,4.33-6.58,1.55-12.04,4.81-15.99,10.38-.74,1.04-2.9,6.47-4.28,6.56-2.21.15-3.19-3.77-3.19-5.3Z"/><path class="cls-29" d="M151.61,102.12c10.96-.32,22.44,5.79,28.77,14.67,5.33,7.47,9.08,20.17,3.31,28.17-4.17-6.42-3.58-14.99-7.95-21.58-4.7-7.09-12.77-12.26-21.07-13.8-4.8-.89-9.95-.9-14.75.03-3.04.59-7.82,4.15-9.21.1-2.27-6.62,17.22-7.57,20.9-7.57Z"/><path class="cls-26" d="M49.67,176.21c1.07-14.42,10.36-21.76,22.37-27.99,5.64-2.93,10.05-6.98,13.52-12.33,3.47-5.36,5.84-12.49,12.65-14.3-1.11,7.56-8.1,17.75-12.85,23.64-5.08,6.3-12.4,7.97-18.82,12.39-5.7,3.93-9.95,9.52-11.27,16.39-.29,1.51.25,8.4-.84,9.06-3.42,2.05-4.76-5.39-4.75-6.86Z"/><path class="cls-4" d="M30.98,82.41c10.1.43,22.95,5.6,29.07,14.13-6.91,1.39-12.04-3.91-18.39-5.98-5.35-1.75-11.13-2.43-16.69-1.32-12.68,2.53-16.47,12.55-24.34,21.01-1.84-14.14,17.42-29,30.36-27.84Z"/><path class="cls-28" d="M161.65,151.54c-.89,9.91-5.06,25.87-15.15,30.68-4.42,2.1-4.79-.43-2.63-3.72,3.54-5.4,7.76-8.9,9.82-15.41,1.89-5.96,2.42-12.65,1.4-18.83-.39-2.35-1.02-4.7-1.93-6.91-.68-1.67-4.51-6.33-4.31-8.01.55-4.45,7.62,4.8,8.59,6.41,3,5.02,3.77,10.07,4.2,15.78Z"/><path class="cls-35" d="M67.63,72.61c3.15,1,6.28,1.16,4.45,4.19-2.18,3.59-8.91,3.21-10.17,8.55,3.04-.76,12.19-9.97,15.31-7.23,3.25,2.85-4.22,10.94-7.53,11.66-3.03.66-14.35-.64-14.58-3.04-.2-2.14,3.61-8.04,4.95-9.7,1.91-2.37,4.43-4.21,7.58-4.43Z"/><path class="cls-24" d="M179.84,75.41c7.75.05,7.98,12.41.21,12.42-7.5.02-8.18-12.47-.21-12.42Z"/><path class="cls-6" d="M14.22,82.73c-7.22-.27-7.81-11.23-.66-12.23,8.16-1.14,9.18,12.54.66,12.23Z"/><path class="cls-32" d="M37.98,36.33c0,7.4-10.54,8.56-11.65,1.08-1.21-8.18,11.66-9.71,11.65-1.08Z"/><path class="cls-8" d="M140.58,90.08c-7.37,0-7.15-12.18.18-12.12,7.82.06,7.5,13.08-.18,12.12Z"/><path class="cls-3" d="M82.21,85.72c.84-2.57,1.32-5.14,4.27-5.68,3.37-.62,5.87,2.52,5.83,5.6-.07,6.9-9.39,6.92-10.11.08Z"/><path class="cls-12" d="M163.67,37.52c.1-6.57,10.22-6.51,10.2-.13-.02,6.36-10.3,6.99-10.2.13Z"/><path class="cls-14" d="M159.52,90.7c-6.11-.03-5.97-8.79-.01-8.91,6.41-.13,6.46,8.94.01,8.91Z"/><path class="cls-10" d="M127.14,125.51c3.19,3.62,6.37,5.88,9.81,8.92,2.12,1.87,5.66,7.82-.07,7.8-4.56-.02-3.28-4.89-4.36-7.34-1.24-2.81-4.38-5.72-5.85-8.98.16-.13.32-.27.48-.4Z"/><path class="cls-7" d="M59.17,151.84c-2.17,1.97-6.1,7.45-8.63,8.36-1.96.7-4.44-.16-6.53-.87,2.07-5.83,9.73-6.99,14.94-8.05.07.19.15.38.22.57Z"/><path class="cls-31" d="M44.34,161.98c6.26.02,4.83,9.42-.77,8.43-4.79-.85-4.21-8.45.77-8.43Z"/><path class="cls-16" d="M138.93,145.77c5.74.09,4.71,9.36-.95,7.95-4.51-1.12-3.98-8.03.95-7.95Z"/><path class="cls-18" d="M118.74,5.7c5.65-.04,5.15,8.35-.23,7.77-4.91-.53-4.81-7.74.23-7.77Z"/><path class="cls-9" d="M85.79,149.22c1.58-1.95,8.2-14.36,10.47-13.38,1.82.78.06,5.49-.55,6.49-1.9,3.12-6.47,5.97-9.78,7.21-.05-.11-.1-.21-.14-.32Z"/><path class="cls-22" d="M132.16,159.38c.03-5.5,8.82-5.06,8.28.15-.45,4.32-8.3,4.65-8.28-.15Z"/><path class="cls-1" d="M103.55,85.54c0,5.25-7.73,4.75-7.53-.4.2-5.15,7.53-4.89,7.53.4Z"/><path class="cls-2" d="M78.65,40.99c1-4.95,6.03-5.91,5.93-.2-.08,4.91-5.68,5.65-5.93.2Z"/><path class="cls-5" d="M145.65,20.05c-4.56-.05-4.45-6.23-.18-6.7,5.17-.57,5.26,6.76.18,6.7Z"/><path class="cls-11" d="M139.5,71.04c-.04,4.57-6.91,4.81-6.96.1-.05-4.74,7-4.73,6.96-.1Z"/><path class="cls-23" d="M16.95,59.49c4.26-.02,5.1,6.37.65,6.71-3.88.29-5.58-6.69-.65-6.71Z"/><path class="cls-33" d="M22.28,43.26c4.02.05,3.37,6.27-.27,6.07-3.66-.2-3.52-6.12.27-6.07Z"/></g><g class="cls-37"><path class="cls-15" d="M221.28,97.59V19.61h32.33c22.97,0,34.45,13.03,34.45,39.08s-11.9,38.9-35.71,38.9h-31.08ZM243.9,91.14h5.94c5.45,0,9.22-2.35,11.31-7.06,2.09-4.7,3.14-13.21,3.14-25.51s-1.04-20.79-3.11-25.48c-2.08-4.69-5.86-7.03-11.34-7.03h-5.94v65.07Z"/><path class="cls-15" d="M345.47,40.01l-26.39,65.01c-3.62,8.91-8.49,13.37-14.62,13.37s-9.98-2.53-12.11-7.6l7.2-5.2c.57,4.38,2.19,6.57,4.86,6.57,3.01,0,5.45-2.53,7.31-7.6l1.54-4.11-23.19-60.44h22.91l11.6,33.88,13.2-33.88h7.71Z"/><path class="cls-15" d="M404.32,97.59h-20.85v-42.28c0-4.3-1.2-6.46-3.6-6.46s-4.55,1.7-6.34,5.11c-1.79,3.41-2.69,7.44-2.69,12.08v31.54h-20.85v-57.7c7.16,0,14.11-.48,20.85-1.43v10.8c5.18-7.16,11.5-10.74,18.97-10.74,9.67,0,14.51,4.91,14.51,14.74v44.33Z"/><path class="cls-15" d="M474.13,95.53c-5.1,1.98-10.07,2.97-14.91,2.97-7.16,0-11.58-2.23-13.25-6.68-3.47,4.65-8.46,6.97-14.97,6.97-12.15,0-18.22-5.64-18.22-16.91,0-8.57,5.56-14.59,16.68-18.05,10.21-3.2,15.31-7.04,15.31-11.54,0-5.9-2.93-8.86-8.8-8.86-6.78,0-10.17,2.86-10.17,8.57,0,1.79.53,4.15,1.6,7.08l-10.34-2c-.27-1.79-.4-3.47-.4-5.03,0-9.14,8.34-13.71,25.02-13.71s23.77,4.27,23.77,12.8v34.96c0,3.58,1.16,5.37,3.48,5.37.72,0,1.79-.4,3.2-1.2l2,5.26ZM444.59,62.97c-1.3,1.49-2.8,2.72-4.51,3.71-4.3,2.51-6.46,6.74-6.46,12.68,0,7.62,1.49,11.43,4.46,11.43,4.34,0,6.51-3.77,6.51-11.31v-16.51Z"/><path class="cls-15" d="M562.34,97.59h-20.85v-43.25c0-3.77-1.1-5.66-3.31-5.66-5.1,0-7.66,5.43-7.66,16.28v32.62h-20.85v-42.33c0-4.3-.99-6.46-2.97-6.46-5.18,0-7.77,5.41-7.77,16.22v32.56h-20.85v-57.76c7.05,0,14-.48,20.85-1.43v9.94c4.91-6.59,10.97-9.88,18.17-9.88,6.02,0,10.49,3.11,13.43,9.31,4.65-6.28,10.45-9.43,17.42-9.43,9.6,0,14.4,4.86,14.4,14.57v44.67Z"/><path class="cls-15" d="M574.27,97.59v-57.53c6.51,0,13.46-.51,20.85-1.54v59.07h-20.85ZM584.84,17.67c6.47,0,9.71,2.51,9.71,7.54s-3.24,7.54-9.71,7.54-9.71-2.51-9.71-7.54,3.24-7.54,9.71-7.54Z"/><path class="cls-15" d="M647.8,71.88l8.8,2.68.06,2.34c0,14.62-8,21.94-23.99,21.94-18.97,0-28.45-9.62-28.45-28.85,0-9.63,2.76-17.32,8.28-23.05,5.52-5.73,12.93-8.6,22.22-8.6,13.37,0,20.05,6.05,20.05,18.17l-9.77,4.74.11-5.48c0-8.23-2.76-12.34-8.28-12.34-7.31,0-10.97,8.08-10.97,24.22,0,9.98.78,16.82,2.34,20.54,1.56,3.71,4.46,5.57,8.68,5.57,7.73,0,11.6-5.01,11.6-15.02,0-1.41-.23-3.69-.69-6.86Z"/></g><text class="cls-17" transform="translate(483.38 181.52)"><tspan class="cls-41" x="0" y="0">R</tspan><tspan class="cls-38" x="37.93" y="0">o</tspan><tspan class="cls-40" x="73.25" y="0">o</tspan><tspan class="cls-36" x="109.21" y="0">t</tspan><tspan x="131.99" y="0">s</tspan></text></g></svg>