<?xml version="1.0" encoding="UTF-8"?><svg id="Layer_2" xmlns="http://www.w3.org/2000/svg" xmlns:xlink="http://www.w3.org/1999/xlink" viewBox="0 0 806 806"><defs><style>.cls-1{filter:url(#drop-shadow-1);}.cls-2{fill:#66c;}.cls-3{fill:#30bcc1;}</style><filter id="drop-shadow-1" x="89" y="95" width="638" height="620" filterUnits="userSpaceOnUse"><feOffset dx="5" dy="5"/><feGaussianBlur result="blur" stdDeviation="4"/><feFlood flood-color="#000" flood-opacity=".75"/><feComposite in2="blur" operator="in"/><feComposite in="SourceGraphic"/></filter></defs><g id="Layer_1-2"><rect class="cls-2" width="806" height="806"/><g class="cls-1"><path class="cls-3" d="M435.58,314.25c30.71,22.92,43.74,50.1,20.85,85.41-20.12,31.03-61.02,47.11-91.54,65.91-38.21,23.53-72.6,24.99-116.19,25.96-35.8.8-69.91,15.05-84.92,49.67-6.02,13.89-9.48,31.74-4.88,46.49,3.19,10.22,10.22,33.65-7.61,13.02-22.5-26.02-8.84-70.95,10.52-94.46,25.23-30.65,66.13-37.89,103.9-36.5,18.93.7,37.27,1.93,55.57-4.23,21.66-7.29,41.85-21.51,61.42-33.14,26.47-15.73,79.87-48.97,52.68-86.93-11.61-16.21-34.01-18.81-52.34-16.52-16.53,2.06-34.62,17.12-50.2,10.8,4.32-10.09,12.18-12.43,21.15-18.25-11.93-4.05-25.48-3.05-37.83-5.7-14.91-3.21-24.13-9.11-36.55-16.92-17.32-10.9-51.38-20.48-71.72-16.95,18.75,10.89,42.16,14.08,62.04,22.69,11.36,4.92,15.63,5.95,4.1,15.17-7.42,5.94-17.87,8.39-27.14,8.96-19.89,1.22-37.03-7.68-51.33-20.81-13.17-12.1-25.36-21.91-39.46-32.52,14.56-10.58,40.46-15.28,57.81-20.15,17.13-4.81,33.45-5.95,49.09,4.2,15.14,9.82,17.46,27.83,33.45,36.29,15.29,8.09,38.49,11.61,55.72,10.99-16.81-12.46-33.27-25.08-45.77-42.16-8.06-11-9.6-25.33-21.88-28.67-15.01-4.08-28.15-.25-40.02-13.24-13.45-14.72-13.95-37.56-18.67-55.75-1.66-6.39-6.54-13.17-1.15-16.66,5.04-3.27,23.12,3.09,28.49,4.51,19.46,5.17,37.56,16.2,46.48,35.02,3.93,8.31,12.27,36.76-2.32,32.11-6.24-1.99-17.62-20.59-23.16-25.91-5.85-5.61-13.93-16.97-22.66-16.92,7.54,15.41,29.54,42.07,43.79,52.32,5.24,3.77,8.67,3.6,13.41,8.76,7.44,8.09,9.13,21.33,19.68,26.66.58-11.58-4.08-23.27-3.72-35.34.31-10.66-1.83-34.44,3.64-43.87,3.7-6.37,7.42-1.31,9.73-8.91,2.75-9.07-12.02-31.03-18.62-35.64,2,10.32,21.83,38.48,2.12,36.68-18.11-1.66-19.71-23.05-20.29-36.4-.15-3.46-2.94-22.97.19-25.4,3.47-2.7,19.28,4.49,22.77,6.03,15.06,6.64,25.39,18.73,26.84,35.5.74,8.58-.86,13.37-4.66,20.82-4.56,8.93-6.7,10.34-8.46,21.7-2.86,18.39-6.22,33.86-.05,52.14,5.46,16.18,16.57,33.08,31.05,42.51,9.82,6.39,40.01,16.99,51.74,12.14-18.44-8.32-34.2-20.06-42.23-39.25-9.18-21.97-1.54-44.18-5.85-65.15-4.81-23.43-4.75-43.31,10.76-64.07,11.54-15.45,41.31-36.59,61.48-37.63-.62,18.78.25,39.73-1.94,58.53-1.97,16.88-9.41,31.47-23.2,41.64-3.73,2.75-17.88,12.51-22.43,11.44-8.88-2.09-4.43-14.49-2.86-21.92,2.24-10.63,6.33-21.13,11.68-30.57,2.13-3.76,14.73-17.23,13.32-20.8-18.84,13.76-29.11,32.17-33.26,55.11-3.56,19.72-6.35,63.02,14.24,75.63,2.6-17.64,3.31-32.41,15.85-46.63,10.33-11.71,37.3-18.52,43.59-31.73,3.2-6.71-.71-16.73,2.25-24.38,3.13-8.08,9.64-14.88,16.59-19.85,6.62-4.73,49.74-22.18,57.51-13.92-.32-.34-15.8,35.91-17.34,39.69-4.94,12.17-11.24,24.13-23.75,29.92-13.63,6.31-29.72,7.24-20.24-9.85,7.46-13.45,20.65-22.28,28.42-34.78-13.16.6-23.8,16.69-29.95,26.94-8.5,14.18-14.89,23.71-28.79,33.13-27.11,18.38-42.33,49.53-13.8,74.73-6.32-38.14,13.13-64.81,52.55-69.11,18.27-1.99,30.37,5.74,47.47-2.42,15.88-7.58,36.13-18.35,48.97-30.57-16.33-1.82-31.14,16.55-45.92,20.5-7.33,1.96-7.44,6.49-9.49-1.87-1.11-4.51,3.38-13.07,5.45-16.59,15.17-25.75,55.94-26.8,82.05-22.12-6.67,17.6-17.76,41.72-33.75,52.55-6.98,4.73-15.22,7.84-23.71,7.96-5.58.08-16.49-5.42-21.26-1.93-14.78,10.81,36.84,6.97,42.6,6.89,22.14-.32,46.53,15.21,67.9,7.61,7.11-2.53,28.87-26.07,24.51-5.16-4.11,19.72-30.62,20.76-45.72,18.84-21.35-2.71-40.54-8.43-62.27-8.05-15.91.27-56.69-6.66-65.75,12.73,7.87,2.96,17.45,2.06,25.85,4.78,4.95,1.6,14.01,7.4,19.43,7.42,12.83.06,23.6-15.3,38.73-16.12,17.06-.93,33.19,7.23,48.73,12.96,20.15,7.42,30.85,4.28,51.02.7-10.38,48.22-84.33,80.31-123.97,48.85-4.61-3.66-20.6-20.58-17.03-27.66,3.79-7.52,24.96,1.38,31,2.88,23.08,5.73,43.76,9.26,68.01.24-3.61-3.22-20.62-.62-25.54-.98-9.31-.68-18.54-2.31-27.61-4.49-9.71-2.34-19.17-6.15-28.98-8-11.32-2.13-21.85-.13-33.23-1.48-17.22-2.04-39.61-10.48-54.68,3.78-13.3,12.58,7.46,15.61,16.54,24.2,29.91,28.29,19.88,60.94,11.65,95.72-10.48,44.31,23.2,64.24,49.76,91.23,49.05,49.85,32.8,138.52-24.97,174.51-16.64,10.36-35.8,15.74-55.07,18.59-9.88,1.46-46.95,13.81-43.21-5.91,3.02-15.92,34.57-8.87,46.31-10.97,19.91-3.57,39.62-12.41,54.9-25.78,28.69-25.12,42.03-69.6,27.34-105.5-8.51-20.79-24.01-32.07-40.41-46.2-16.13-13.9-21.9-27.88-31.1-46.16-12.52,40.47,29.72,71.77,30.41,110.74.31,17.54-4.91,35.29-14.48,49.97-11.91,18.27-29.1,23.33-44.95,36.43,14.49,0,34.72-6.04,47.6-12.18,11-5.24,23.95-19.89,36.08-20.32-4.34,21.77-32.58,37.83-52.24,42.47-23.1,5.45-50.77-1.95-70.35,14.45-6.35,5.32-9.94,18.89-16.02,22.59-11.6,7.06-15.33-2.93-11.7-12.57,10.22-27.18,38.61-33.87,60.95-47.26,21.65-12.98,40.39-31.57,45.69-57.22,6.64-32.12-13.88-49.22-23.93-76.67-10.02-27.37-4.47-56.15,6.59-82.15,10.12-23.77,25.36-55.35,11.33-80.74,10.44,49.06-20.22,82.03-39.45,123.71-17.04,36.92-4.22,82.55-33.03,114.35-26.58,29.34-71.09,33.98-95.62,66.14-6.32,8.28-15.05,37.63-23.99,37.81-15.91.33-11.39-23.42-9.2-32.02,9.29-36.51,47.43-53.04,79.24-65.57,16.86-6.64,31.63-13.94,41.1-30.26,10.11-17.42,7.8-36.65,10.15-55.86,2.61-21.33,10.33-40.75,22.47-58.47,10.67-15.58,25.49-27.31,32.85-45.14,13.95-33.8,3.78-67.1-31.7-78.82ZM496.38,236.9c-23.35-.06-66.25,18.13-51.56,48.61,9.79-7.31,17.43-17.27,27.39-24.68,10.64-7.91,22.54-14.1,32.57-22.76-2.76-.87-5.56-1.27-8.4-1.18Z"/><path class="cls-3" d="M476.45,556.68c-.52,49.59-42.46,64.67-78.24,86.8-8.89,5.5-17.38,12-24.23,19.94-5.91,6.86-8.44,20.42-14.04,26-7.03,7.01-19.66,2.08-29.74.73-11.5-1.54-19.46,1.01-19.02-11.38,1.62-45.53,72.69-65.99,102.69-86.42,19.05-12.98,28.54-28.15,30.44-51.24,1.36-16.6-6.89-52.48,4.37-65.22,5.55,13.83,5.84,28.84,12.79,42.66,5.99,11.91,16.26,23.86,14.98,38.13Z"/><path class="cls-3" d="M318.25,438.99c-61.74.38-148.94-54.65-191.41,17.45-8.4,14.26-17.61,35.66-13.59,52.57,1.87,7.86,17.85,22.2,11.29,28.86-14.69,14.91-22.04-20.09-23.77-27-5.79-23.11-1.9-38.75,8.08-60.17,15.78-33.87,43.01-57.95,81.91-57.74,21,.11,38.7,5.97,58.05,13.01,21.4,7.78,43.17,11.05,65.83,12.69,17.5,1.27,35.34,1.02,52.22-4.36,5.73-1.83,37.42-23.29,41.43-16.97,6.56,10.33-22.4,25.16-28.69,28.46-19.76,10.38-39.5,11.92-61.37,13.22Z"/><path class="cls-3" d="M429.3,435.08c-13.83,29.27-44.51,46.41-63.43,72.35-17.75,24.34-35.43,43.82-65.44,52.49-29.68,8.57-59.83,6.63-79.61,34.96-7.78,11.14-13.54,26.79-9.38,40.15,2.18,6.99,18.05,25.97-3.05,24.26-31.32-2.53-21.96-58.78-11.67-74.41,18.52-28.12,52.82-34.11,83.26-40.51,34.08-7.17,52.88-22.59,73.07-50.22,20.89-28.58,45.42-42.85,76.25-59.06Z"/><path class="cls-3" d="M650.15,553.17c-.38,32.45-6.91,54.55-34.47,73.98-14.03,9.89-15.85,3.13-9.81-10.21,6.39-14.11,11.97-27.72,13.4-43.34,2.55-27.89-5.4-54.75-28.13-72.27-22.18-17.1-58.11-16.57-72.85-42.5,52.02-24.53,139.88,36.01,131.86,94.34Z"/><path class="cls-3" d="M709.03,351.68c-.79,17.84-5.59,35.56-16.74,49.8-6.05,7.73-25.25,17.53-24.93,25.09.22,5.27,14.97,18.63,17.89,24.23,4.36,8.37,7.06,17.39,7.88,26.8.91,10.4.69,31.42-9.47,17.2-9.5-13.3-12.51-31.87-22.91-45.75-12.35-16.48-27.58-25.57-47.14-31.39-17.68-5.25-36.6-8.72-55.07-6.9-10.73,1.06-21.11,4.01-31.23,7.64-4.13,1.48-21.82,12.32-25.05,11.18-11.34-4.02,10.77-23.07,13.1-24.45,12.22-7.27,26.28-11.41,40.41-12.45,14.66-1.08,31.42-1.01,45.9,1.4,15.91,2.65,32.9,13.84,48.86,13.42,28.03-.74,43.7-33.26,43.4-57.82-.09-7.32-9.66-28.11,2.46-29.17,12.22-1.08,12.64,23.68,12.64,31.17Z"/><path class="cls-3" d="M287.28,461.79c-39.48-2.3-91.73-12.58-123.96,17.12-7.14,6.58-12.25,14.73-16.33,23.46-1.64,3.52-5.51,21.45-9.76,22.18-18.17,3.11-11.38-34.21-9.05-40.92,13.19-38.01,53.21-53.85,91.03-50.88,22.08,1.73,43.17,9.47,65,12.74,17.41,2.61,37.23-2.02,53.89,2.21-8.44,10.31-38.15,13-50.8,14.09Z"/><path class="cls-3" d="M166.59,575.35c6.23-36.66,26.27-58.53,63.09-66.34,18.97-4.02,38.47-2,57.63-4.3,19.67-2.37,37.93-14.22,57.04-15.92-4.29,14.68-24.95,29.97-38.18,36.44-20.66,10.11-44.03,8.42-65.97,13.58-20.66,4.86-37.77,15.08-50.17,32.56-2.31,3.26-9.09,20.31-13.43,20.6-6.92.47-10.02-11.83-10.02-16.63Z"/><path class="cls-3" d="M571.18,421.55c34.39-1,70.41,18.16,90.3,46.03,16.73,23.44,28.5,63.29,10.38,88.4-13.09-20.15-11.25-47.06-24.94-67.74-14.74-22.26-40.08-38.47-66.13-43.32-15.07-2.8-31.23-2.83-46.28.09-9.54,1.85-24.53,13.04-28.9.3-7.12-20.79,54.05-23.77,65.58-23.77Z"/><path class="cls-3" d="M251.27,654.07c3.34-45.24,32.52-68.28,70.2-87.83,17.7-9.18,31.53-21.9,42.41-38.7,10.89-16.81,18.33-39.19,39.7-44.89-3.48,23.71-25.42,55.69-40.34,74.18-15.95,19.78-38.9,25-59.05,38.9-17.88,12.34-31.24,29.87-35.38,51.44-.91,4.74.79,26.37-2.63,28.42-10.72,6.45-14.95-16.91-14.92-21.53Z"/><path class="cls-3" d="M192.62,359.7c31.7,1.36,72.04,17.56,91.22,44.33-21.69,4.35-37.8-12.26-57.72-18.76-16.79-5.48-34.93-7.62-52.38-4.13-39.78,7.95-51.68,39.38-76.39,65.92-5.79-44.37,54.66-91,95.27-87.36Z"/><path class="cls-3" d="M602.69,576.64c-2.8,31.1-15.87,81.18-47.55,96.28-13.86,6.6-15.03-1.34-8.27-11.66,11.1-16.95,24.36-27.94,30.82-48.35,5.92-18.71,7.6-39.71,4.41-59.08-1.22-7.38-3.21-14.76-6.04-21.69-2.14-5.23-14.16-19.86-13.51-25.13,1.72-13.97,23.93,15.06,26.96,20.13,9.42,15.75,11.82,31.6,13.19,49.51Z"/><path class="cls-3" d="M307.62,328.93c9.9,3.14,19.72,3.65,13.96,13.16-6.84,11.28-27.95,10.06-31.93,26.82,9.53-2.38,38.25-31.28,48.04-22.69,10.19,8.94-13.24,34.35-23.64,36.6-9.49,2.06-45.02-2-45.75-9.54-.64-6.7,11.32-25.23,15.52-30.45,5.99-7.44,13.9-13.21,23.79-13.89Z"/><path class="cls-3" d="M659.78,337.71c24.32.14,25.04,38.94.66,38.99-23.54.05-25.67-39.13-.66-38.99Z"/><path class="cls-3" d="M140.02,360.7c-22.66-.84-24.5-35.26-2.09-38.37,25.61-3.56,28.81,39.37,2.09,38.37Z"/><path class="cls-3" d="M214.59,215.06c-.03,23.21-33.08,26.88-36.55,3.38-3.79-25.66,36.59-30.47,36.55-3.38Z"/><path class="cls-3" d="M536.59,383.76c-23.12-.02-22.45-38.22.58-38.03,24.55.2,23.52,41.05-.58,38.03Z"/><path class="cls-3" d="M353.4,370.09c2.64-8.07,4.13-16.12,13.41-17.84,10.58-1.96,18.41,7.92,18.31,17.58-.22,21.65-29.48,21.71-31.72.26Z"/><path class="cls-3" d="M609.05,218.8c.31-20.62,32.08-20.44,32-.41-.08,19.95-32.32,21.94-32,.41Z"/><path class="cls-3" d="M596.02,385.71c-19.19-.11-18.75-27.57-.03-27.95,20.11-.41,20.29,28.06.03,27.95Z"/><path class="cls-3" d="M494.39,494.96c10.01,11.35,19.99,18.44,30.78,27.99,6.65,5.88,17.77,24.54-.23,24.47-14.31-.05-10.28-15.35-13.68-23.03-3.9-8.82-13.74-17.94-18.37-28.17.5-.42,1-.84,1.5-1.27Z"/><path class="cls-3" d="M281.09,577.59c-6.82,6.19-19.14,23.37-27.1,26.22-6.16,2.21-13.92-.52-20.48-2.73,6.5-18.28,30.54-21.95,46.89-25.27.23.59.46,1.19.69,1.78Z"/><path class="cls-3" d="M234.55,609.39c19.64.06,15.17,29.56-2.42,26.46-15.05-2.65-13.22-26.51,2.42-26.46Z"/><path class="cls-3" d="M531.4,558.52c18.03.28,14.78,29.36-2.99,24.96-14.14-3.5-12.5-25.2,2.99-24.96Z"/><path class="cls-3" d="M468.05,118.95c17.72-.12,16.16,26.21-.72,24.39-15.42-1.66-15.11-24.28.72-24.39Z"/><path class="cls-3" d="M364.61,569.35c4.97-6.11,25.74-45.05,32.87-41.99,5.7,2.44.17,17.23-1.72,20.35-5.96,9.8-20.31,18.74-30.7,22.63-.15-.33-.3-.66-.45-.99Z"/><path class="cls-3" d="M510.16,601.24c.08-17.27,27.68-15.89,25.98.48-1.41,13.55-26.05,14.6-25.98-.48Z"/><path class="cls-3" d="M420.35,369.51c.02,16.47-24.27,14.92-23.64-1.26.62-16.16,23.62-15.34,23.64,1.26Z"/><path class="cls-3" d="M342.21,229.7c3.12-15.53,18.91-18.54,18.61-.64-.26,15.39-17.83,17.73-18.61.64Z"/><path class="cls-3" d="M552.47,163.99c-14.3-.16-13.97-19.55-.57-21.02,16.23-1.78,16.51,21.2.57,21.02Z"/><path class="cls-3" d="M533.19,324c-.13,14.34-21.67,15.08-21.83.3-.16-14.87,21.96-14.84,21.83-.3Z"/><path class="cls-3" d="M148.58,287.76c13.36-.05,16,19.99,2.04,21.05-12.16.92-17.51-20.99-2.04-21.05Z"/><path class="cls-3" d="M165.32,236.83c12.61.17,10.59,19.67-.86,19.04-11.5-.64-11.04-19.19.86-19.04Z"/></g></g></svg>