<?xml version="1.0" encoding="UTF-8"?><svg id="Layer_2" xmlns="http://www.w3.org/2000/svg" xmlns:xlink="http://www.w3.org/1999/xlink" viewBox="0 0 436.38 191.91"><defs><style>.cls-1{fill:url(#dyanmic_Roots);}.cls-1,.cls-2,.cls-3,.cls-4,.cls-5,.cls-6,.cls-7{stroke:#30bcc1;stroke-miterlimit:1;}.cls-8{letter-spacing:.01em;}.cls-9{letter-spacing:0em;}.cls-2{fill:url(#dyanmic_Roots-2);}.cls-3{fill:url(#dyanmic_Roots-3);}.cls-4{fill:url(#dyanmic_Roots-7);}.cls-10{letter-spacing:0em;}.cls-5{fill:url(#dyanmic_Roots-5);}.cls-6{fill:url(#dyanmic_Roots-6);}.cls-7{fill:url(#dyanmic_Roots-4);}.cls-11{fill:#44cb98;font-family:AcuminConcept-ExtraCond, 'Acumin Variable Concept';font-size:109px;font-variation-settings:'wght' 400, 'wdth' 50, 'slnt' 0;}.cls-12{letter-spacing:0em;}</style><linearGradient id="dyanmic_Roots" x1="-6.95" y1="72.97" x2="56.27" y2="9.74" gradientUnits="userSpaceOnUse"><stop offset="0" stop-color="#66c"/><stop offset=".22" stop-color="#ff69b4"/><stop offset=".4" stop-color="#ff69b4"/><stop offset=".54" stop-color="#fdba5a"/><stop offset=".68" stop-color="#fcee21"/><stop offset=".83" stop-color="#30bcc1"/><stop offset="1" stop-color="#44cb98"/></linearGradient><linearGradient id="dyanmic_Roots-2" x1="58.74" y1="82.24" x2="121.42" y2="19.56" xlink:href="#dyanmic_Roots"/><linearGradient id="dyanmic_Roots-3" x1="128.37" y1="79.58" x2="181.41" y2="26.54" xlink:href="#dyanmic_Roots"/><linearGradient id="dyanmic_Roots-4" x1="198.98" y1="79.84" x2="246.99" y2="31.83" xlink:href="#dyanmic_Roots"/><linearGradient id="dyanmic_Roots-5" x1="263.92" y1="87.05" x2="332.05" y2="18.92" xlink:href="#dyanmic_Roots"/><linearGradient id="dyanmic_Roots-6" x1="340.01" y1="66.93" x2="387.99" y2="18.95" xlink:href="#dyanmic_Roots"/><linearGradient id="dyanmic_Roots-7" x1="389.94" y1="73.86" x2="433.54" y2="30.26" xlink:href="#dyanmic_Roots"/></defs><g id="Layer_1-2"><path class="cls-1" d="M.5,80.42V2.44h32.33c22.97,0,34.45,13.03,34.45,39.08s-11.9,38.9-35.71,38.9H.5ZM23.12,73.97h5.94c5.45,0,9.22-2.35,11.31-7.06,2.09-4.7,3.14-13.21,3.14-25.51s-1.04-20.79-3.11-25.48c-2.08-4.69-5.86-7.03-11.34-7.03h-5.94v65.07Z"/><path class="cls-2" d="M124.7,22.84l-26.39,65.01c-3.62,8.91-8.49,13.37-14.62,13.37s-9.98-2.53-12.11-7.6l7.2-5.2c.57,4.38,2.19,6.57,4.86,6.57,3.01,0,5.45-2.53,7.31-7.6l1.54-4.11-23.19-60.44h22.91l11.6,33.88,13.2-33.88h7.71Z"/><path class="cls-3" d="M183.54,80.42h-20.85v-42.28c0-4.3-1.2-6.46-3.6-6.46s-4.55,1.7-6.34,5.11c-1.79,3.41-2.69,7.44-2.69,12.08v31.54h-20.85V22.72c7.16,0,14.11-.48,20.85-1.43v10.8c5.18-7.16,11.5-10.74,18.97-10.74,9.67,0,14.51,4.91,14.51,14.74v44.33Z"/><path class="cls-7" d="M253.35,78.37c-5.1,1.98-10.07,2.97-14.91,2.97-7.16,0-11.58-2.23-13.25-6.68-3.47,4.65-8.46,6.97-14.97,6.97-12.15,0-18.22-5.64-18.22-16.91,0-8.57,5.56-14.59,16.68-18.05,10.21-3.2,15.31-7.04,15.31-11.54,0-5.9-2.93-8.86-8.8-8.86-6.78,0-10.17,2.86-10.17,8.57,0,1.79.53,4.15,1.6,7.08l-10.34-2c-.27-1.79-.4-3.47-.4-5.03,0-9.14,8.34-13.71,25.02-13.71s23.77,4.27,23.77,12.8v34.96c0,3.58,1.16,5.37,3.48,5.37.72,0,1.79-.4,3.2-1.2l2,5.26ZM223.82,45.8c-1.3,1.49-2.8,2.72-4.51,3.71-4.3,2.51-6.46,6.74-6.46,12.68,0,7.62,1.49,11.43,4.46,11.43,4.34,0,6.51-3.77,6.51-11.31v-16.51Z"/><path class="cls-5" d="M341.56,80.42h-20.85v-43.25c0-3.77-1.1-5.66-3.31-5.66-5.1,0-7.66,5.43-7.66,16.28v32.62h-20.85v-42.33c0-4.3-.99-6.46-2.97-6.46-5.18,0-7.77,5.41-7.77,16.22v32.56h-20.85V22.67c7.05,0,14-.48,20.85-1.43v9.94c4.91-6.59,10.97-9.88,18.17-9.88,6.02,0,10.49,3.11,13.43,9.31,4.65-6.28,10.45-9.43,17.42-9.43,9.6,0,14.4,4.86,14.4,14.57v44.67Z"/><path class="cls-6" d="M353.5,80.42V22.89c6.51,0,13.46-.51,20.85-1.54v59.07h-20.85ZM364.07.5c6.47,0,9.71,2.51,9.71,7.54s-3.24,7.54-9.71,7.54-9.71-2.51-9.71-7.54,3.24-7.54,9.71-7.54Z"/><path class="cls-4" d="M427.02,54.72l8.8,2.68.06,2.34c0,14.62-8,21.94-23.99,21.94-18.97,0-28.45-9.62-28.45-28.85,0-9.63,2.76-17.32,8.28-23.05,5.52-5.73,12.93-8.6,22.22-8.6,13.37,0,20.05,6.05,20.05,18.17l-9.77,4.74.11-5.48c0-8.23-2.76-12.34-8.28-12.34-7.31,0-10.97,8.08-10.97,24.22,0,9.98.78,16.82,2.34,20.54,1.56,3.71,4.46,5.57,8.68,5.57,7.73,0,11.6-5.01,11.6-15.02,0-1.41-.23-3.69-.69-6.86Z"/><text class="cls-11" transform="translate(258.6 163.35)"><tspan class="cls-12" x="0" y="0">R</tspan><tspan class="cls-9" x="37.93" y="0">o</tspan><tspan class="cls-10" x="73.25" y="0">o</tspan><tspan class="cls-8" x="109.21" y="0">t</tspan><tspan x="131.99" y="0">s</tspan></text></g></svg>